<svg xmlns="http://www.w3.org/2000/svg" width="510" height="510" viewBox="0 0 510 510"><path d="M344.3 229.5c20.4 0 38.3-17.8 38.3-38.2S364.7 153 344.3 153 306 170.9 306 191.3 323.9 229.5 344.3 229.5zM165.8 229.5c20.4 0 38.3-17.8 38.3-38.2S186.2 153 165.8 153s-38.2 17.9-38.2 38.3S145.4 229.5 165.8 229.5zM255 408c66.3 0 122.4-43.3 145.4-102h-290.7C132.6 364.7 188.7 408 255 408zM255 0C114.8 0 0 114.8 0 255s114.8 255 255 255 255-114.7 255-255S395.3 0 255 0zM255 459c-112.2 0-204-91.8-204-204S142.8 51 255 51s204 91.8 204 204S367.2 459 255 459z"/></svg>
